<mxfile host="app.diagrams.net" modified="2024-06-28T00:40:45.688Z" agent="Mozilla/5.0 (Windows NT 10.0; Win64; x64) AppleWebKit/537.36 (KHTML, like Gecko) Chrome/126.0.0.0 Safari/537.36" version="24.6.4" etag="O4y8toPHmNEfHY8yC6af" type="github">
  <diagram name="Page-1" id="QCengr-yy_dm9E7NKkUo">
    <mxGraphModel>
      <root>
        <mxCell id="0" />
        <mxCell id="1" parent="0" />
      </root>
    </mxGraphModel>
  </diagram>
</mxfile>
